<svg t="1624539120644" class="icon" viewBox="0 0 1024 1024" version="1.1" xmlns="http://www.w3.org/2000/svg" p-id="40375" width="200" height="200"><path d="M808.5 831.5m-11.5 0a11.5 11.5 0 1 0 23 0 11.5 11.5 0 1 0-23 0Z" fill="#FFC649" p-id="40376"></path><path d="M138.5 382.5m-8 0a8 8 0 1 0 16 0 8 8 0 1 0-16 0Z" fill="#AC4625" p-id="40377"></path><path d="M655.6 738.8l5.2 9.4 9.5 5.2-9.5 5.1-5.2 9.5-5.1-9.5-9.5-5.1 9.5-5.2z" fill="#AC4625" p-id="40378"></path><path d="M804 686.2l2.5 4.2 4.5 2.2-4.5 2.3-2.5 4.1-2.5-4.1-4.5-2.3 4.5-2.2z" fill="#F27865" p-id="40379"></path><path d="M372.8 223.3l3.9 7 7 3.9-7 3.8-3.9 7-3.8-7-7-3.8 7-3.9z" fill="#AC4625" p-id="40380"></path><path d="M235.3 453.8h-38.5c-1.5 0-2.8-1.2-2.8-2.8 0-1.5 1.2-2.8 2.8-2.8h38.5c1.5 0 2.8 1.2 2.8 2.8-0.1 1.5-1.3 2.8-2.8 2.8z" fill="#F27865" p-id="40381"></path><path d="M218.8 431.8v38.5c0 1.5-1.2 2.8-2.8 2.8-1.5 0-2.8-1.2-2.8-2.8v-38.5c0-1.5 1.2-2.8 2.8-2.8 1.5 0 2.8 1.2 2.8 2.8zM834.8 617.3h-45.5c-1.8 0-3.3-1.5-3.3-3.3 0-1.8 1.5-3.3 3.3-3.3h45.5c1.8 0 3.3 1.5 3.3 3.3-0.1 1.8-1.6 3.3-3.3 3.3z" fill="#F27865" p-id="40382"></path><path d="M815.3 591.3v45.5c0 1.8-1.5 3.3-3.3 3.3-1.8 0-3.3-1.5-3.3-3.3v-45.5c0-1.8 1.5-3.3 3.3-3.3 1.8 0 3.3 1.5 3.3 3.3z" fill="#F27865" p-id="40383"></path><path d="M554.7 161.3L280.8 897.8c-0.4 1.1-1.6 1.6-2.6 1.2-1.1-0.4-1.6-1.6-1.2-2.6l273.9-736.5c0.4-1.1 1.6-1.6 2.6-1.2 1.1 0.3 1.6 1.5 1.2 2.6z" p-id="40384"></path><path d="M431 645.4c-16.6-14.8-33.7-29.4-53.9-39.1-18.8-9.1-41.5-14.3-62.3-10.6-8 1.4-15 4-20.4 10.5-4.5 5.4-7.6 14-6.8 21.2 0.9 7.7 4.2 15.5 10.5 20.4 5.8 4.4 13.7 8.1 21.2 6.8 3.7-0.7 7.4-1 11.1-1 4.2 0.5 8.3 1.2 12.3 2.3 6.3 2.3 12.3 5.3 18.2 8.7 11.5 7.8 21.9 17 32.3 26.2 11.5 10.3 32.1 8.6 41.5-3.7 10-13.2 8.7-30.7-3.7-41.7z" fill="#F27865" p-id="40385"></path><path d="M471.7 571.2c-39.1-31.7-88.4-60.2-140.9-51.5-8 1.3-15 4.1-20.4 10.5-4.5 5.4-7.6 14-6.8 21.2 0.9 7.7 4.2 15.5 10.5 20.4 5.8 4.4 13.7 8 21.2 6.8 5.9-1 11.8-1.4 17.8-1.3 7.4 0.7 14.7 2.1 21.9 4.1 11.4 4 22.1 9.3 32.4 15.6 9.2 6.1 17.9 12.7 26.4 19.6 12 9.7 31.8 9 41.5-3.7s9.3-31.3-3.6-41.7z" fill="#FFC649" p-id="40386"></path><path d="M492.1 493.5c-16.6-14.8-33.7-29.4-53.9-39.1-18.8-9.1-41.5-14.3-62.3-10.6-8 1.4-15 4-20.4 10.5-4.5 5.4-7.6 14-6.8 21.2 0.9 7.7 4.2 15.5 10.5 20.4 5.8 4.4 13.7 8.1 21.2 6.8 3.7-0.7 7.4-1 11.1-1 4.2 0.5 8.3 1.2 12.3 2.3 6.3 2.3 12.3 5.3 18.2 8.7 11.5 7.8 21.9 17 32.3 26.2 11.5 10.3 32.1 8.6 41.5-3.7 9.9-13.2 8.6-30.7-3.7-41.7z" fill="#F27865" p-id="40387"></path><path d="M532.8 419.3c-39.1-31.7-88.4-60.2-140.9-51.5-8 1.3-15 4.1-20.4 10.5-4.5 5.4-7.6 14-6.8 21.2 0.9 7.7 4.2 15.5 10.5 20.4 5.8 4.4 13.7 8 21.2 6.8 5.9-1 11.8-1.4 17.8-1.3 7.4 0.7 14.7 2.1 21.9 4.1 11.4 4 22.1 9.3 32.4 15.6 9.2 6.1 17.9 12.7 26.4 19.6 12 9.7 31.8 9 41.5-3.7s9.2-31.3-3.6-41.7z" fill="#FFC649" p-id="40388"></path><path d="M552.4 342.1c-16.6-14.8-33.7-29.4-53.9-39.1-18.8-9.1-41.5-14.3-62.3-10.6-8 1.4-15 4-20.4 10.5-4.5 5.4-7.6 14-6.8 21.2 0.9 7.7 4.2 15.5 10.5 20.4 5.8 4.4 13.7 8.1 21.2 6.8 3.7-0.7 7.4-1 11.1-1 4.2 0.5 8.3 1.2 12.3 2.3 6.3 2.3 12.3 5.3 18.2 8.7 11.5 7.8 21.9 17 32.3 26.2 11.5 10.3 32.1 8.6 41.5-3.7 10-13.2 8.7-30.7-3.7-41.7z" fill="#F27865" p-id="40389"></path><path d="M593.1 267.9c-39.1-31.7-88.4-60.2-140.9-51.5-8 1.3-15 4.1-20.4 10.5-4.5 5.4-7.6 14-6.8 21.2 0.9 7.7 4.2 15.5 10.5 20.4 5.8 4.4 13.7 8 21.2 6.8 5.9-1 11.8-1.4 17.8-1.3 7.4 0.7 14.7 2.1 21.9 4.1 11.4 4 22.1 9.3 32.4 15.6 9.2 6.1 17.9 12.7 26.4 19.6 12 9.7 31.8 9 41.5-3.7s9.2-31.3-3.6-41.7z" fill="#FFC649" p-id="40390"></path><path d="M873 291.1L317 846.3c-0.8 0.8-2.1 0.8-2.9 0-0.8-0.8-0.8-2.1 0-2.9l556.1-555.3c0.8-0.8 2.1-0.8 2.9 0 0.7 0.9 0.7 2.2-0.1 3z" p-id="40391"></path><path d="M558.7 679.6c-8.9-20.3-18.4-40.8-32.6-58-13.3-16.1-31.7-30.3-52.2-35.6-7.9-2-15.3-2.6-22.9 1.1-6.4 3.1-12.8 9.6-15 16.4-2.4 7.4-2.7 15.8 1.1 22.9 3.4 6.4 9.1 13.1 16.4 15 3.6 0.9 7.1 2.2 10.5 3.7 3.6 2.2 7 4.6 10.2 7.3 4.8 4.8 9 10 12.9 15.5 7.2 11.9 12.8 24.6 18.4 37.3 6.2 14.1 25.6 21.2 39.3 13.9 14.5-8 20.5-24.4 13.9-39.5z" fill="#F27865" p-id="40392"></path><path d="M626.6 629.1c-22.3-45.2-55.3-91.6-106.6-105.5-7.8-2.1-15.3-2.5-22.9 1.1-6.4 3.1-12.8 9.6-15 16.4-2.4 7.4-2.7 15.8 1.1 22.9 3.4 6.4 9.1 13 16.4 15 5.8 1.6 11.3 3.7 16.7 6.2 6.5 3.7 12.5 8 18.2 12.8 8.7 8.3 16.2 17.7 23 27.7 5.8 9.3 11 19 15.8 28.8 6.8 13.8 25.1 21.5 39.3 13.9 14.1-7.5 21.4-24.5 14-39.3z" fill="#FFC649" p-id="40393"></path><path d="M677.5 566.9c-8.9-20.3-18.4-40.8-32.6-58-13.3-16.1-31.7-30.3-52.2-35.6-7.9-2-15.3-2.6-22.9 1.1-6.4 3.1-12.8 9.6-15 16.4-2.4 7.4-2.7 15.8 1.1 22.9 3.4 6.4 9.1 13.1 16.4 15 3.6 0.9 7.1 2.2 10.5 3.7 3.6 2.2 7 4.6 10.2 7.3 4.8 4.8 9 10 12.9 15.5 7.2 11.9 12.8 24.6 18.4 37.3 6.2 14.1 25.6 21.2 39.3 13.9 14.5-7.9 20.6-24.3 13.9-39.5z" fill="#F27865" p-id="40394"></path><path d="M745.4 516.5c-22.3-45.2-55.3-91.6-106.6-105.5-7.8-2.1-15.3-2.5-22.9 1.1-6.4 3.1-12.8 9.6-15 16.4-2.4 7.4-2.7 15.8 1.1 22.9 3.4 6.4 9.1 13 16.4 15 5.8 1.6 11.3 3.7 16.7 6.2 6.5 3.7 12.5 8 18.2 12.8 8.7 8.3 16.2 17.7 23 27.7 5.8 9.3 11 19 15.8 28.8 6.8 13.8 25.1 21.5 39.3 13.9 14.1-7.5 21.4-24.5 14-39.3z" fill="#FFC649" p-id="40395"></path><path d="M795.5 454.5c-8.9-20.3-18.4-40.8-32.6-58-13.3-16.1-31.7-30.3-52.2-35.6-7.9-2-15.3-2.6-22.9 1.1-6.4 3.1-12.8 9.6-15 16.4-2.4 7.4-2.7 15.8 1.1 22.9 3.4 6.4 9.1 13.1 16.4 15 3.6 0.9 7.1 2.2 10.5 3.7 3.6 2.2 7 4.6 10.2 7.3 4.8 4.8 9 10 12.9 15.5 7.2 11.9 12.8 24.6 18.4 37.3 6.2 14.1 25.6 21.2 39.3 13.9 14.5-7.9 20.5-24.4 13.9-39.5z" fill="#F27865" p-id="40396"></path><path d="M863.4 404c-22.3-45.2-55.3-91.6-106.6-105.5-7.8-2.1-15.3-2.5-22.9 1.1-6.4 3.1-12.8 9.6-15 16.4-2.4 7.4-2.7 15.8 1.1 22.9 3.4 6.4 9.1 13 16.4 15 5.8 1.6 11.3 3.7 16.7 6.2 6.5 3.7 12.5 8 18.2 12.8 8.7 8.3 16.2 17.7 23 27.7 5.8 9.3 11 19 15.8 28.8 6.8 13.8 25.1 21.5 39.3 13.9 14-7.4 21.3-24.5 14-39.3z" fill="#FFC649" p-id="40397"></path></svg>