<svg t="1624538852877" class="icon" viewBox="0 0 1024 1024" version="1.1" xmlns="http://www.w3.org/2000/svg" p-id="31375" width="200" height="200"><path d="M1002 578.1c-19.4-19.4-42.1-34.5-67.5-45.1-25.3-10.6-51.9-15.9-79.3-15.9L726 347c6.7 1.4 13.7 2.1 20.7 2.1 2.4 0 4.9-0.1 7.8-0.3 11.5-0.8 20.4-10.4 20.4-21.9v-111c0-11.5-8.9-21.1-20.4-21.9-2.9-0.2-5.4-0.3-7.8-0.3-23.1 0-45 7.5-61.7 21h-91.6c-12.2 0-22 9.8-22 22v16.5l-25.9-25.9c-4.2-4.1-9.8-6.4-15.6-6.4H468c-12.2 0-22 9.8-22 22s9.8 22 22 22h52.8l51.8 51.8 51 165.2-34.3 170.2c-0.1 0.1-0.1 0.2-0.1 0.3-1.9 9.9-10.5 17-20.5 17H485c-8.5 0-13.7-4.7-16-7.5-2.4-2.8-6-8.7-4.5-17l30-148.1c13.6-7.8 22.8-22.5 22.8-39.3v-27.7c0-25-20.3-45.3-45.3-45.3H273.8c-40.2 0-73 32.7-73 73 0 5 0.8 9.9 2.3 14.4-46.4 12.4-82.3 33.8-108.4 64.3C56.3 581 44.2 637 33.3 700.1c-1.1 6.4 0.7 12.9 4.9 17.9 4.2 4.9 10.3 7.8 16.8 7.8h43c1.9 78.9 66.6 142.5 145.9 142.5 51.9 0 97.6-27.2 123.4-68.1h307.5c12.2 0 22-9.9 22.1-22v-7.5c0-1.8-0.2-3.6-0.7-5.4-3.3-13.2-5-26.8-5-40.4 0-43.4 17.1-84.5 48.2-115.6s72.2-48.2 115.6-48.2c43.1 0 85.4 17.5 115.9 48.1 8.6 8.6 22.5 8.6 31.1 0s8.6-22.5 0-31.1zM730.9 302.9c-8.3-2.3-15.5-6.3-20.8-11.3-0.9-1.2-1.9-2.3-3-3.3-4.1-5-6.5-10.8-6.5-17 0-14.2 12.8-26.8 30.3-31.6v63.2z m-73.1-44.2c-0.8 4.2-1.2 8.4-1.2 12.7 0 3.8 0.3 7.6 1 11.3h-42.2v-24h42.4zM246.2 458.8c-0.7 0-1.3-0.6-1.3-1.3 0-16 13-29 29-29h198.3c0.7 0 1.3 0.6 1.3 1.3v27.7c0 0.7-0.6 1.3-1.3 1.3h-226z m-2.3 365.5c-55 0-100-43.9-101.8-98.5h203.6c-1.8 54.6-46.8 98.5-101.8 98.5z m464.3-246.1c-39.4 39.4-61.1 91.5-61.1 146.7 0 10.5 0.8 21 2.4 31.3H385.9c2.6-10.8 3.9-22.1 3.9-33.7 0-7.4-0.5-14.7-1.6-21.9-1.7-10.7-10.9-18.7-21.8-18.7H81.3c8.9-46 20.5-86.3 46.8-117 16.7-19.6 38.4-34 66.2-44.2 32.3-11.8 73.6-17.8 122.7-17.8h131.5l-27.1 133.5c-0.1 0.1-0.1 0.2-0.1 0.3-3.6 19.1 1.4 38.5 13.8 53.4 12.4 14.9 30.5 23.4 49.9 23.4h83.7c31.1 0 57.9-22.2 63.7-52.7l35.2-174.9c0.9-4.1 0.6-8.4-0.7-12.4l-45.2-146.7h33.6l149.3 196.5c-36 9-69.2 27.7-96.4 54.9z" p-id="31376"></path><path d="M855 576.5c-80.5 0-145.9 65.4-145.9 145.9S774.6 868.3 855 868.3s145.9-65.4 145.9-145.9S935.4 576.5 855 576.5z m0 247.8c-56.2 0-101.9-45.7-101.9-101.9S798.8 620.5 855 620.5c56.1 0 101.9 45.7 101.9 101.9S911.2 824.3 855 824.3z" p-id="31377"></path></svg>