<svg t="1625744662146" class="icon" viewBox="0 0 1024 1024" version="1.1" xmlns="http://www.w3.org/2000/svg" p-id="5081" width="200" height="200"><path d="M255.397 92.154c-19.046 3.765-36.77 12.608-54.222 25.768-12.373 9.331-23.834 20.103-37.723 34.771l-2.36 2.507c-4.027 4.311-15.069 16.31-19.616 21.187l-1.147 1.224 0.554-0.564c-40.598 40.598-39.582 120.96-4.01 215.436 36.979 98.211 108.726 205.6 208.499 305.37 99.93 99.932 206.737 171.602 304.29 208.482 93.88 35.491 174.014 36.501 215.92-3.41l2.254-2.138a982.581 982.581 0 0 1 4.217-3.96l11.7-10.87c18.502-17.225 27.421-26.102 37.262-37.663 15.327-18.007 25.723-35.563 30.82-54.732 12.574-47.289-9.748-92.916-66.362-138.208-53.776-43.02-95.96-61.516-135.006-57.626-19.012 1.893-38.093 10.803-58.053 25.786l-0.804 0.605c-19.851 15.059-46.22 18.14-68.928 8.102-50.213-22.198-92.406-50.494-126.795-84.883-34.34-34.342-62.606-76.464-84.79-126.587a68.267 68.267 0 0 1 7.864-68.658l0.454-0.598c12.486-16.229 20.659-31.46 24.091-46.522 9.64-42.29-8.189-87.912-55.635-147.22-42.165-52.707-86.509-74.683-132.474-65.6z m37.69 70.965c12.282 6.086 26.183 18.163 41.476 37.28l1.388 1.742c18.799 23.705 30.804 43.16 36.96 58.912 4.813 12.317 5.742 21.264 4.036 28.749-0.9 3.948-4.517 10.732-11.255 19.565l-0.384 0.503c-30.496 39.64-36.878 92.779-16.636 138.51 25.5 57.617 58.48 106.766 98.944 147.23 40.52 40.52 89.747 73.533 147.465 99.048 44.963 19.877 97.1 14.034 136.526-15.204l1.858-1.395 1.068-0.795c10.251-7.546 18.082-11.147 22.701-11.605 7.538-0.752 16.885 1.027 29.163 6.41 15.413 6.758 34.073 18.708 56.43 36.593l1.514 1.219c19.995 16.205 32.431 30.53 38.43 42.79 4.336 8.865 5.06 15.94 3.09 23.35-2.071 7.79-7.343 16.77-16.309 27.41l-1.59 1.86c-7.217 8.356-14.872 15.931-30.39 30.387l-12.59 11.702a922.24 922.24 0 0 0-6.48 6.11c-7.164 6.824-22.53 11.381-45.2 11.096-27.276-0.344-61.458-7.725-99.498-22.106-88.085-33.301-186.813-99.55-280.16-192.898-93.15-93.148-159.47-192.413-192.881-281.153-14.384-38.2-21.78-72.497-22.123-99.674-0.28-22.072 4.071-36.76 10.3-43.219l0.559-0.562 1.937-2.064c5.229-5.61 17.007-18.414 20.008-21.607l1.474-1.561c23.921-25.24 40.563-37.621 55.716-40.617 7.762-1.534 15.424-0.482 24.453 3.993z" p-id="5082"></path></svg>