<svg t="1624538588898" class="icon" viewBox="0 0 1024 1024" version="1.1" xmlns="http://www.w3.org/2000/svg" p-id="16725" width="200" height="200"><path d="M112.4 385.8v14c0 106.7 42 217 115.4 302.5 36.9 43 79.2 77 125.7 101.1 49.8 25.8 102 38.8 155.3 38.8s105.5-13.1 155.3-38.8c46.6-24.1 88.9-58.1 125.7-101.1 73.3-85.5 115.4-195.8 115.4-302.5v-14H112.4z m735.6 165c-18.7 48.3-46.2 94.4-79.5 133.3-34.5 40.2-74 72-117.3 94.5-45.8 23.7-93.7 35.7-142.4 35.7s-96.6-12-142.4-35.7c-43.4-22.4-82.8-54.2-117.3-94.5-33.3-38.9-60.8-85-79.5-133.3-17.5-45.3-27.2-91.4-28.9-137H877c-1.8 45.6-11.5 91.6-29 137z" fill="" p-id="16726"></path><path d="M420.7 567.6c23.1-61.2 83.6-95.1 135.2-75.7 51.6 19.4 74.7 84.8 51.7 146.1-23.1 61.2-59.1 84-110.7 64.6-51.7-19.4-99.2-73.7-76.2-135z" fill="#FF3F65" p-id="16727"></path><path d="M576.3 503L820.5 193.1l49.6 39.7-268.2 298.3z" fill="#FFDF3F" p-id="16728"></path></svg>