<svg t="1624678156765" class="icon" viewBox="0 0 1024 1024" version="1.1" xmlns="http://www.w3.org/2000/svg" p-id="24959" width="200" height="200"><path d="M605.31785 223.712131l275.269367 0 0 211.824383-275.269367 0 0-211.824383Z" p-id="24960"></path><path d="M266.506285 241.108337c0-47.072085 19.540032-82.378196 41.029462-82.378196l0 8.633634c0 0-25.863041 4.15974-31.904641 73.744561L266.506285 241.108337z" p-id="24961"></path><path d="M322.964134 121.978099l-1.90028 0c-4.875031 0-9.556657 0.824785-13.95278 2.302439l0 84.903715c4.3951 1.497097 9.077749 2.303462 13.95278 2.303462l1.90028 0c24.180725 0 43.794435-19.59529 43.794435-43.795459l0-1.880837C366.759593 141.592832 347.14486 121.978099 322.964134 121.978099z" p-id="24962"></path><path d="M782.641465 433.992345c0 0-28.191062 0-164.141384 0-135.971811 0-142.246725 71.314209-161.284313 138.599661-15.06716 53.218062-20.585851 77.544097-25.919323 101.492532l119.823016 0c0.417509-1.013073 40.046065-53.720505 95.03547-60.914348 72.513524-9.485025 112.862487 25.475208 114.430192 26.63973 3.226484-9.972119 6.246261-20.086477 12.095479-41.693588C794.234501 518.54916 782.641465 433.992345 782.641465 433.992345z" p-id="24963"></path><path d="M782.349823 435.536514l176.008666 0 0 19.442818-176.008666 0 0-19.442818Z" p-id="24964"></path><path d="M273.073864 499.472686c-4.653997-46.350654-5.474688-96.492658-4.831029-139.457192l-64.605414 0c0 0-19.190061-4.514827-26.516934-9.290597-54.590316 118.249171-26.89044 272.239358-26.89044 272.239358s43.945885-23.183002 101.872179-7.144724c50.715055 14.045901 82.786495 61.419861 82.786495 61.419861S284.358885 612.086509 273.073864 499.472686z" p-id="24965"></path><path d="M580.732919 768.583796c-1.016143-7.845689-1.133823-13.612019-1.857301-13.612019-0.00307 0-52.777017 0-52.777017 0s0.554632-25.488511 7.049556-44.221154c6.922666-19.970844 13.831007-31.344892 18.907629-38.177508l-221.546815 0.460488c27.238364 37.004799 26.430976 79.293951 26.430976 79.293951l0 3.774977-36.45733 0c-0.016373 6.804986-0.921999 18.877953-4.5312 34.278711 0 0 270.743284 0 271.188422 0C582.97089 790.379195 582.295508 780.658809 580.732919 768.583796z" p-id="24966"></path><path d="M258.991124 755.349377c0.028653 0.62831 0.049119 1.254573 0.049119 1.888 0 22.38073-18.674315 41.057091-41.054021 41.057091s-41.054021-18.676361-41.054021-41.057091c0-0.633427 0.020466-1.258667 0.049119-1.888l-61.954027 0c-0.01228 0.676405-0.051165 1.343601-0.051165 2.022053 0 56.769958 46.039569 102.81055 102.826923 102.81055 56.748469 0 102.807481-46.040592 102.807481-102.81055 0-0.677429-0.038886-1.344624-0.051165-2.022053L258.991124 755.349377z" p-id="24967"></path><path d="M357.745289 755.778142c-0.862647-80.776721-66.573231-146.006352-147.561777-146.006352-81.026408 0-146.735969 65.22963-147.58122 146.006352L357.745289 755.778142z" p-id="24968"></path><path d="M722.671629 755.349377c0.029676 0.62831 0.049119 1.254573 0.049119 1.888 0 22.38073-18.677385 41.057091-41.056068 41.057091-22.37766 0-41.055045-18.676361-41.055045-41.057091 0-0.633427 0.01842-1.258667 0.048095-1.888l-61.999053 0c-0.013303 0.676405-0.051165 1.343601-0.051165 2.022053 0 56.769958 46.060035 102.81055 102.847389 102.81055 56.749492 0 102.806457-46.040592 102.806457-102.81055 0-0.677429-0.036839-1.344624-0.050142-2.022053L722.671629 755.349377z" p-id="24969"></path><path d="M819.285037 755.778142c-0.88209-80.776721-66.63156-146.006352-147.57815-146.006352-81.010035 0-146.700153 65.22963-147.602709 146.006352L819.285037 755.778142z" p-id="24970"></path><path d="M301.056172 315.241754c-18.405185 0-33.766035-15.358803-33.766035-33.766035 0-18.405185 15.360849-33.766035 33.766035-33.766035 12.041244 0 22.776749 6.575766 28.763091 16.274662 1.662873-20.431332 9.489118-21.86089-14.004969-21.86089l-108.930945 0c-25.907043 0-93.321432 1.737574-93.321432 28.777417l0 17.963117c0 27.039843 67.414389 71.067592 93.321432 71.067592l108.930945 0c22.936385 0 16.023952-34.503838 14.134929-61.182454C323.991534 308.568774 313.186444 315.241754 301.056172 315.241754z" p-id="24971"></path><path d="M301.228087 315.133284c-18.821671 0-34.134425-15.304568-34.134425-34.116005 0-18.822694 15.312754-34.135448 34.134425-34.135448 18.84316 0 34.17331 15.312754 34.17331 34.135448C335.401398 299.828716 320.071248 315.133284 301.228087 315.133284zM301.228087 247.905136c-18.257829 0-33.111119 14.854313-33.111119 33.112142 0 18.247596 14.853289 33.092699 33.111119 33.092699 18.279319 0 33.150004-14.845103 33.150004-33.092699C334.378092 262.758426 319.506383 247.905136 301.228087 247.905136z" p-id="24972"></path><path d="M301.246507 296.837592c-20.413935 0-20.413935-31.658024 0-31.658024C321.661466 265.179568 321.661466 296.837592 301.246507 296.837592z" p-id="24973"></path></svg>