<svg t="1626437097170" class="icon" viewBox="0 0 1024 1024" version="1.1" xmlns="http://www.w3.org/2000/svg" p-id="8884" width="64" height="64"><path d="M736 928H608c-17.673 0-32-14.327-32-32V641H448v255c0 17.673-14.327 32-32 32H288c-39.995 0-62.738-16.003-74.775-29.429-23.13-25.798-22.847-58.481-22.225-67.829V545h-63a32 32 0 0 1-22.627-54.628l384-384c12.485-12.485 32.724-12.499 45.225-0.029l384 383A31.999 31.999 0 0 1 896 544h-64v286.537c0.761 9.736 1.312 42.175-21.387 67.887C798.702 911.917 776.089 928 736 928z m-96-64h96c8.852 0 20.629-1.344 26.464-7.742 6.287-6.896 5.845-18.826 5.743-20.55-0.216-1.454-0.207-2.141-0.207-3.708V512c0-17.673 14.327-32 32-32h18.603L512.03 174.226 205.255 481H223c17.673 0 32 14.327 32 32v319c0 1.404 0.017 1.932-0.153 3.216-0.074 1.738-0.322 13.777 6.215 20.835C267.148 862.621 279.07 864 288 864h96V609c0-17.673 14.327-32 32-32h192c17.673 0 32 14.327 32 32v255z" p-id="8885" fill="#1296db"></path></svg>