<svg t="1624677504206" class="icon" viewBox="0 0 1024 1024" version="1.1" xmlns="http://www.w3.org/2000/svg" p-id="2479" width="200" height="200"><path d="M512 947.2c-96.290133 0-332.8-355.191467-332.8-520.533333 0-183.808 148.992-332.8 332.8-332.8s332.8 148.992 332.8 332.8c0 165.341867-236.509867 520.533333-332.8 520.533333z m0-51.2c62.600533 0 281.6-328.9088 281.6-469.333333a281.6 281.6 0 1 0-563.2 0c0 140.424533 218.999467 469.333333 281.6 469.333333z m0-358.4a128 128 0 1 1 0-256 128 128 0 0 1 0 256z m0-51.2a76.8 76.8 0 1 0 0-153.6 76.8 76.8 0 0 0 0 153.6z" p-id="2480"></path></svg>