<svg t="1624677667280" class="icon" viewBox="0 0 1024 1024" version="1.1" xmlns="http://www.w3.org/2000/svg" p-id="6052" width="200" height="200"><path d="M516.685 862a297.453 297.453 0 0 1-142.216-36.228c-93.474-50.861-153.71-152.508-153.457-258.945 0.178-73.363 28.649-130.511 52.503-165.531l28.743-42.206 21.169 46.463c12.692 27.854 30.661 51.01 53.401 68.806 19.344 15.129 40.26 26.029 53.897 30.885-1.151-3.864-2.447-7.915-3.574-11.452-6.222-19.47-13.964-43.703-15.709-72.259-4.21-68.881 27.479-140.11 94.194-211.714l44.55-47.82 5.132 65.157a492.186 492.186 0 0 0 8.655 60.797c7.794 37.687 15.153 73.278 38.286 106.877 20.902 30.38 37.664 44.339 45.205 48.129 4.627-7.803 11.494-31.512 6.442-71.491L642.791 283.5l60.61 64.717a395.503 395.503 0 0 1 46.669 60.666c21.604 34.581 39.133 75.028 46.88 108.196 18.254 78.219-2.765 197.783-92.052 275.487C652.235 838.394 584.963 862 516.685 862zM298.057 475.202c-10.98 25.187-19.475 56.166-19.559 91.757-0.201 85.638 48.255 167.403 123.452 208.327 86.574 47.1 193.142 36.62 265.209-26.076 71.346-62.098 88.277-157.083 73.812-219.059-4.505-19.283-15.747-50.112-34.211-81.793-7.635 26.188-21.847 44.311-41.397 50.674-33.168 10.816-70.322-13.295-110.456-71.604-29.725-43.17-39.02-88.146-47.226-127.826a43.724 43.724 0 0 1-0.145-0.702c-28.022 41.551-41.018 81.456-38.712 119.134 1.305 21.388 7.565 40.981 13.085 58.262 8.505 26.628 18.151 56.811-5.506 77.582-40.901 35.928-119.625-22.231-134.997-34.244-16.398-12.836-30.882-27.694-43.349-44.432z" p-id="6053"></path></svg>