<svg t="1624685289634" class="icon" viewBox="0 0 1024 1024" version="1.1" xmlns="http://www.w3.org/2000/svg" p-id="27243" width="200" height="200"><path d="M0 1.3H1024.6V1024H0z" fill="#FFFFFF" p-id="27244"></path><path d="M735.8 541.2l-25.1 248.1c0 84.6-69.1 153.8-153.6 153.8H449c-84.5 0-153.6-69.2-153.6-153.8l-36.9-365s172.4-28.1 244.6 101.5 225.4 70.7 232.7 15.4z" fill="#FF8E31" p-id="27245"></path><path d="M555.6 957.4H447.5c-92.4 0-167.6-75.1-168.1-167.5L231.1 312c-0.8-7.9 5-15 12.9-15.8 8.1-0.7 15 5 15.8 12.9l48.4 478.6c0 0.5 0.1 1 0.1 1.4 0 76.9 62.5 139.4 139.2 139.4H555.6c76.8 0 139.2-62.5 139.2-139.4 0-0.5 0-1 0.1-1.4l39.5-390.3c0.8-7.9 7.8-13.7 15.8-12.9 7.9 0.8 13.7 7.9 12.9 15.8L723.6 789.9c-0.4 92.5-75.6 167.5-168 167.5zM755.3 348c-0.5 0-1 0-1.5-0.1-7.9-0.8-13.7-7.9-12.9-15.8l2.3-23c0.8-7.9 7.8-13.6 15.8-12.9 7.9 0.8 13.7 7.9 12.9 15.8l-2.3 23c-0.7 7.5-7 13-14.3 13zM501.5 281.2c-93.1 0-309.7-5.1-309.7-52.7 0-23.8 28.1-34.6 107.4-41.2 58.1-4.8 128.1-7.4 202.3-7.4 8 0 14.4 6.5 14.4 14.4 0 8-6.5 14.4-14.4 14.4-73.4 0-142.6 2.5-199.9 7.3-43.5 3.6-64.1 8.2-73.8 11.6 27.4 10 112.7 24.8 273.7 24.8 152.9 0 249.1-13.6 283.9-24-12.8-3.6-37.4-8.4-84-12.3-7.9-0.7-13.8-7.6-13.2-15.6 0.7-7.9 7.6-13.8 15.6-13.2 101.5 8.5 121.9 22 121.9 41.2 0 13.9-7.7 28.4-100.3 40.5-59.9 7.9-139.4 12.2-223.9 12.2z m297.3-47.4h0.1-0.1z" fill="#000202" p-id="27246"></path><path d="M604.6 212.2c-3.5 0-6.9-1.2-9.7-3.8l-57-51.9c-20.5-22.7-19.7-55.8 0.9-76.4 20.7-20.7 53.8-21.5 75.5-1.8 5.9 5.3 6.3 14.5 1 20.4-5.3 5.9-14.4 6.3-20.4 1-10.2-9.3-25.9-8.9-35.7 0.8-9.8 9.8-10.1 25.5-0.9 35.7l56 50.9c5.9 5.4 6.3 14.5 0.9 20.4-2.8 3.1-6.7 4.7-10.6 4.7z" fill="#FF8E31" p-id="27247"></path><path d="M604.6 212.2c-3.9 0-7.8-1.6-10.7-4.7-5.4-5.9-4.9-15 0.9-20.4l57-51.9c8.3-9.3 7.9-25-1.9-34.7-9.8-9.8-25.4-10.1-35.7-0.8-5.9 5.4-15 4.9-20.4-1-5.4-5.9-4.9-15 1-20.4 21.7-19.7 54.8-18.9 75.5 1.8 20.6 20.6 21.4 53.8 1.9 75.4l-57.9 52.9c-2.8 2.5-6.3 3.8-9.7 3.8zM636.6 432.4c-25.6 0-46.4-20.8-46.4-46.5s20.8-46.5 46.4-46.5c25.6 0 46.4 20.8 46.4 46.5s-20.8 46.5-46.4 46.5z m0-64.1c-9.7 0-17.6 7.9-17.6 17.6 0 9.7 7.9 17.6 17.6 17.6 9.7 0 17.6-7.9 17.6-17.6 0-9.7-7.9-17.6-17.6-17.6z" fill="#F4702A" p-id="27248"></path></svg>